<svg width="20" height="23" viewBox="0 0 20 23" fill="none" xmlns="http://www.w3.org/2000/svg">
<path d="M10.2209 1.99642e-08C10.9749 -8.78792e-05 11.6999 0.290082 12.2457 0.81031C12.7914 1.33054 13.1159 2.04089 13.1519 2.794C14.5127 3.3702 15.6736 4.33444 16.4897 5.56635C17.3058 6.79827 17.741 8.24328 17.7409 9.721V13.947C18.3587 13.9906 18.9353 14.273 19.3486 14.7343C19.7619 15.1957 19.9794 15.7997 19.9551 16.4186C19.9308 17.0375 19.6666 17.6227 19.2184 18.0502C18.7702 18.4777 18.1733 18.7139 17.5539 18.709H2.88791C2.26855 18.7139 1.67159 18.4777 1.2234 18.0502C0.775219 17.6227 0.511005 17.0375 0.486701 16.4186C0.462398 15.7997 0.679912 15.1957 1.09319 14.7343C1.50647 14.273 2.08307 13.9906 2.70091 13.947V9.721C2.70083 8.24328 3.13601 6.79827 3.95213 5.56635C4.76825 4.33444 5.92915 3.3702 7.28991 2.794C7.32612 2.04098 7.65072 1.33077 8.1964 0.810587C8.74209 0.290409 9.46701 0.000157006 10.2209 1.99642e-08ZM8.48291 4.305C7.33608 4.67332 6.33583 5.39626 5.6263 6.36962C4.91677 7.34298 4.53461 8.51648 4.53491 9.721V14.121C4.53464 14.5586 4.36075 14.9783 4.0514 15.2878C3.74205 15.5973 3.32252 15.7715 2.88491 15.772C2.73904 15.772 2.59914 15.8299 2.496 15.9331C2.39285 16.0362 2.3349 16.1761 2.3349 16.322C2.3349 16.4679 2.39285 16.6078 2.496 16.7109C2.59914 16.8141 2.73904 16.872 2.88491 16.872H17.5539C17.6998 16.872 17.8397 16.8141 17.9428 16.7109C18.046 16.6078 18.1039 16.4679 18.1039 16.322C18.1039 16.1761 18.046 16.0362 17.9428 15.9331C17.8397 15.8299 17.6998 15.772 17.5539 15.772C17.3371 15.7721 17.1224 15.7295 16.9221 15.6466C16.7218 15.5636 16.5398 15.442 16.3865 15.2887C16.2333 15.1353 16.1118 14.9533 16.029 14.7529C15.9461 14.5525 15.9036 14.3378 15.9039 14.121V9.721C15.904 8.51652 15.5218 7.34309 14.8123 6.36976C14.1028 5.39643 13.1026 4.67346 11.9559 4.305L11.3189 4.105V2.932C11.3189 2.64026 11.203 2.36047 10.9967 2.15418C10.7904 1.94789 10.5106 1.832 10.2189 1.832C9.92717 1.832 9.64738 1.94789 9.44109 2.15418C9.2348 2.36047 9.11891 2.64026 9.11891 2.932V4.1L8.48291 4.305ZM6.73591 18.705H8.56991C8.56219 18.9265 8.59916 19.1473 8.67861 19.3542C8.75806 19.5612 8.87836 19.75 9.03233 19.9094C9.18631 20.0688 9.37081 20.1956 9.57485 20.2822C9.77888 20.3688 9.99826 20.4135 10.2199 20.4135C10.4416 20.4135 10.6609 20.3688 10.865 20.2822C11.069 20.1956 11.2535 20.0688 11.4075 19.9094C11.5615 19.75 11.6818 19.5612 11.7612 19.3542C11.8406 19.1473 11.8776 18.9265 11.8699 18.705H13.7039C13.7039 19.6293 13.3367 20.5157 12.6832 21.1693C12.0296 21.8228 11.1432 22.19 10.2189 22.19C9.29463 22.19 8.4082 21.8228 7.75464 21.1693C7.10107 20.5157 6.7339 19.6293 6.7339 18.705H6.73591Z" fill="#20D0C4"/>
</svg>
