<svg width="22" height="23" viewBox="0 0 22 23" fill="none" xmlns="http://www.w3.org/2000/svg">
<g opacity="0.63">
<path d="M20.8889 9.60004C20.7455 9.45197 20.6432 9.26895 20.5923 9.06914C20.5415 8.86933 20.5437 8.6597 20.5989 8.46104C20.7917 7.73259 20.6885 6.95747 20.312 6.30478C19.9354 5.65209 19.316 5.17481 18.5889 4.97704C18.3885 4.92117 18.2065 4.81316 18.0614 4.66402C17.9163 4.51488 17.8133 4.32994 17.7629 4.12804C17.6662 3.76729 17.4993 3.42913 17.2718 3.13288C17.0444 2.83662 16.7608 2.58808 16.4373 2.40143C16.1137 2.21478 15.7566 2.09368 15.3863 2.04506C15.016 1.99644 14.6397 2.02124 14.2789 2.11804C14.0781 2.17259 13.8662 2.17184 13.6657 2.11587C13.4652 2.05989 13.2835 1.95077 13.1399 1.80004C12.5981 1.28381 11.8784 0.99585 11.1299 0.99585C10.3815 0.99585 9.66181 1.28381 9.11995 1.80004C8.97188 1.94352 8.78885 2.04577 8.58904 2.09665C8.38924 2.14752 8.1796 2.14524 7.98095 2.09004C7.25281 1.89544 6.47721 1.99783 5.82451 2.37471C5.17181 2.75159 4.69541 3.37214 4.49995 4.10004C4.44407 4.30048 4.33607 4.48252 4.18693 4.62762C4.03778 4.77273 3.85284 4.87569 3.65095 4.92604C2.92232 5.12891 2.30289 5.61054 1.92671 6.2667C1.55053 6.92286 1.44787 7.70076 1.64095 8.43204C1.69611 8.63249 1.69615 8.84411 1.64107 9.04458C1.58598 9.24505 1.4778 9.42693 1.32795 9.57104C0.79861 10.1061 0.501709 10.8284 0.501709 11.581C0.501709 12.3337 0.79861 13.056 1.32795 13.591C1.47143 13.7391 1.57368 13.9221 1.62455 14.1219C1.67542 14.3217 1.67315 14.5314 1.61795 14.73C1.51974 15.0886 1.4948 15.4632 1.54463 15.8316C1.59445 16.1999 1.71802 16.5545 1.90795 16.874C2.28298 17.526 2.9011 18.0028 3.62695 18.2C3.82738 18.2559 4.00943 18.3639 4.15453 18.5131C4.29963 18.6622 4.4026 18.8471 4.45295 19.049C4.64799 19.7739 5.12178 20.3922 5.77095 20.769C6.09077 20.9583 6.4453 21.0814 6.81356 21.1313C7.18183 21.1811 7.55634 21.1565 7.91495 21.059C8.11529 21.0024 8.32731 21.0017 8.52806 21.0568C8.72881 21.112 8.91066 21.221 9.05395 21.372C9.58901 21.9014 10.3113 22.1983 11.0639 22.1983C11.8166 22.1983 12.5389 21.9014 13.0739 21.372C13.222 21.2286 13.405 21.1263 13.6048 21.0754C13.8047 21.0246 14.0143 21.0268 14.2129 21.082C14.5715 21.1803 14.9461 21.2052 15.3145 21.1554C15.6828 21.1055 16.0374 20.982 16.3569 20.792C17.0061 20.4152 17.4799 19.7969 17.6749 19.072C17.7308 18.8716 17.8388 18.6896 17.988 18.5445C18.1371 18.3994 18.322 18.2964 18.5239 18.246C19.2488 18.051 19.8671 17.5772 20.2439 16.928C20.6156 16.2782 20.7196 15.5092 20.5339 14.784C20.4773 14.5837 20.4766 14.3717 20.5317 14.1709C20.5869 13.9702 20.6959 13.7883 20.8469 13.645C21.1156 13.3824 21.3298 13.0693 21.4773 12.7237C21.6248 12.3782 21.7028 12.007 21.7067 11.6312C21.7106 11.2555 21.6404 10.8828 21.5001 10.5342C21.3597 10.1857 21.1521 9.86824 20.8889 9.60004ZM19.7049 12.436C19.3537 12.7902 19.1009 13.2299 18.9717 13.7117C18.8424 14.1934 18.8411 14.7006 18.9679 15.183C19.0114 15.3316 19.024 15.4876 19.0047 15.6412C18.9854 15.7948 18.9348 15.9428 18.8559 16.076C18.6998 16.3484 18.4431 16.5487 18.1409 16.634C17.6595 16.7642 17.2206 17.0183 16.8679 17.371C16.5152 17.7237 16.2611 18.1626 16.1309 18.644C16.0541 18.944 15.8613 19.2012 15.5949 19.359C15.4617 19.4379 15.3137 19.4885 15.1601 19.5078C15.0065 19.527 14.8505 19.5145 14.7019 19.471C14.2197 19.3413 13.7118 19.3412 13.2295 19.4706C12.7471 19.6 12.3075 19.8544 11.9549 20.208C11.7292 20.4232 11.4293 20.5432 11.1174 20.5432C10.8056 20.5432 10.5057 20.4232 10.2799 20.208C9.74478 19.6789 9.02255 19.3821 8.26995 19.382C8.0214 19.3786 7.77351 19.4085 7.53295 19.471C7.38436 19.5145 7.22843 19.527 7.07481 19.5078C6.9212 19.4885 6.77318 19.4379 6.63995 19.359C6.36757 19.2029 6.16725 18.9462 6.08194 18.644C5.95175 18.1626 5.69766 17.7237 5.34499 17.371C4.99232 17.0183 4.5534 16.7642 4.07195 16.634C3.77199 16.5572 3.51481 16.3644 3.35695 16.098C3.2781 15.9648 3.22747 15.8168 3.20821 15.6632C3.18894 15.5096 3.20144 15.3536 3.24495 15.205C3.37464 14.7228 3.3748 14.2149 3.24539 13.7326C3.11599 13.2502 2.86161 12.8106 2.50795 12.458C2.39981 12.3497 2.31446 12.2208 2.25693 12.0789C2.19939 11.9371 2.17084 11.7851 2.17295 11.632C2.17169 11.4737 2.20269 11.3168 2.26407 11.1708C2.32544 11.0248 2.41591 10.8929 2.52995 10.783C2.88361 10.4305 3.13799 9.99085 3.26739 9.50853C3.3968 9.02621 3.39664 8.51828 3.26695 8.03604C3.22729 7.88643 3.21787 7.73041 3.23924 7.57712C3.2606 7.42382 3.31233 7.27633 3.39138 7.14327C3.47044 7.0102 3.57524 6.89424 3.69965 6.80217C3.82406 6.7101 3.96559 6.64376 4.11595 6.60704C4.59741 6.47741 5.03651 6.2239 5.38951 5.87177C5.74252 5.51964 5.99712 5.08118 6.12795 4.60004C6.1682 4.44995 6.23784 4.30935 6.33284 4.18638C6.42784 4.06341 6.54631 3.96053 6.68138 3.88369C6.81645 3.80686 6.96542 3.7576 7.11967 3.73878C7.27392 3.71995 7.43037 3.73194 7.57995 3.77404C8.06219 3.90374 8.57011 3.90389 9.05243 3.77449C9.53475 3.64509 9.97439 3.39071 10.3269 3.03704C10.5527 2.8219 10.8526 2.7019 11.1644 2.7019C11.4763 2.7019 11.7762 2.8219 12.0019 3.03704C12.3545 3.39071 12.7941 3.64509 13.2765 3.77449C13.7588 3.90389 14.2667 3.90374 14.7489 3.77404C14.8986 3.73438 15.0546 3.72496 15.2079 3.74633C15.3612 3.7677 15.5087 3.81942 15.6417 3.89848C15.7748 3.97754 15.8907 4.08233 15.9828 4.20675C16.0749 4.33116 16.1412 4.47268 16.1779 4.62304C16.3081 5.10449 16.5622 5.54342 16.9149 5.89608C17.2676 6.24875 17.7065 6.50284 18.1879 6.63304C18.338 6.67329 18.4786 6.74294 18.6016 6.83794C18.7246 6.93294 18.8275 7.05141 18.9043 7.18647C18.9811 7.32154 19.0304 7.47052 19.0492 7.62476C19.068 7.77901 19.056 7.93546 19.0139 8.08504C18.8842 8.56728 18.8841 9.07521 19.0135 9.55753C19.1429 10.0398 19.3973 10.4795 19.7509 10.832C19.9572 11.0505 20.0683 11.342 20.0599 11.6424C20.0515 11.9427 19.9242 12.2275 19.7059 12.434L19.7049 12.436Z" fill="#F02756" stroke="#F02756" stroke-width="0.5"/>
<path d="M14.5249 8.21295C14.4482 8.13347 14.3562 8.07026 14.2545 8.02709C14.1528 7.98392 14.0434 7.96167 13.9329 7.96167C13.8225 7.96167 13.7131 7.98392 13.6114 8.02709C13.5097 8.07026 13.4177 8.13347 13.341 8.21295L7.71295 13.841C7.63347 13.9177 7.57026 14.0097 7.52709 14.1114C7.48392 14.2131 7.46167 14.3225 7.46167 14.4329C7.46167 14.5434 7.48392 14.6528 7.52709 14.7545C7.57026 14.8562 7.63347 14.9482 7.71295 15.0249C7.87336 15.1818 8.08858 15.2701 8.31295 15.271C8.53657 15.2664 8.75046 15.1787 8.91295 15.0249L14.5469 9.39695C14.6997 9.23633 14.783 9.02203 14.7789 8.80043C14.7747 8.57884 14.6835 8.36779 14.5249 8.21295Z" fill="#F02756"/>
<path d="M8.49506 10.3571C9.24727 10.3571 9.85706 9.74727 9.85706 8.99506C9.85706 8.24284 9.24727 7.63306 8.49506 7.63306C7.74284 7.63306 7.13306 8.24284 7.13306 8.99506C7.13306 9.74727 7.74284 10.3571 8.49506 10.3571Z" fill="#F02756"/>
<path d="M13.7429 15.6051C14.4951 15.6051 15.1049 14.9953 15.1049 14.2431C15.1049 13.4909 14.4951 12.8811 13.7429 12.8811C12.9906 12.8811 12.3809 13.4909 12.3809 14.2431C12.3809 14.9953 12.9906 15.6051 13.7429 15.6051Z" fill="#F02756"/>
</g>
</svg>
